<?xml version="1.0" encoding="utf-8"?>
<!-- Generator: Adobe Illustrator 27.8.1, SVG Export Plug-In . SVG Version: 6.00 Build 0)  -->
<svg version="1.1" id="Layer_1" xmlns="http://www.w3.org/2000/svg" xmlns:xlink="http://www.w3.org/1999/xlink" x="0px" y="0px"
	 viewBox="0 0 1000 107.2" style="enable-background:new 0 0 1000 107.2;" xml:space="preserve">
<style type="text/css">
	.st0{fill:#002E6D;}
	.st1{enable-background:new    ;}
	.st2{fill:#FFFFFF;}
	.st3{fill:#ED40A9;}
	.st4{fill:#3DAE2B;}
	.st5{clip-path:url(#SVGID_00000094613026074710266660000000530035386618018718_);}
	.st6{fill:#00A0DF;}
	.st7{fill:#B14FC5;}
	.st8{fill:#F38B00;}
</style>
<g id="Background">
	<rect y="0" class="st0" width="1000" height="107"/>
</g>
<g id="Text">
	<g class="st1">
		<path class="st2" d="M222,23h6.3l-11.1,25.4H212l-4.2-15.2l-6.6,15.2h-5.3L188.8,23h6.7l4,16.1l6.9-16.1h4.5l4.1,16.4L222,23z"/>
		<path class="st2" d="M241.3,32.4c1.5,1.5,2.2,3.6,2.2,6.4c0,0.6,0,1.3-0.1,1.9h-10.9c0.3,2.2,1.6,3.2,3.9,3.2c1.7,0,3.4-0.6,5-1.7
			l1.3,4.2c-0.8,0.7-1.8,1.2-3,1.6c-1.2,0.4-2.4,0.6-3.8,0.6c-1.9,0-3.6-0.4-5-1.1s-2.6-1.7-3.4-3c-0.8-1.3-1.2-2.8-1.2-4.6
			c0-1.9,0.4-3.5,1.2-5c0.8-1.5,1.9-2.6,3.3-3.5c1.4-0.8,2.9-1.2,4.6-1.2C237.9,30.2,239.9,30.9,241.3,32.4z M233.6,35.2
			c-0.5,0.5-0.9,1.3-1.1,2.4h5.7c-0.1-2.1-0.9-3.2-2.6-3.2C234.8,34.5,234.1,34.8,233.6,35.2z"/>
		<path class="st2" d="M248.7,48.1c-1.4-0.3-2.7-0.9-4.1-1.6l2-4.4c1,0.6,2.1,1.1,3.3,1.5c1.2,0.4,2.4,0.6,3.5,0.6
			c0.7,0,1.3-0.1,1.6-0.3c0.3-0.2,0.5-0.4,0.5-0.7c0-0.4-0.2-0.7-0.7-0.9s-1.3-0.5-2.3-0.8c-1.3-0.3-2.3-0.7-3.2-1
			c-0.9-0.4-1.6-0.9-2.2-1.6c-0.6-0.7-1-1.6-1-2.8c0-1.2,0.3-2.2,1-3.1c0.7-0.9,1.6-1.6,2.8-2.1c1.2-0.5,2.6-0.7,4.2-0.7
			c1.4,0,2.7,0.2,4,0.6s2.5,0.9,3.4,1.6l-1.9,4.2c-0.9-0.6-1.8-1.1-2.8-1.4c-1-0.3-1.9-0.5-2.9-0.5c-0.8,0-1.3,0.1-1.7,0.3
			c-0.4,0.2-0.6,0.4-0.6,0.7c0,0.4,0.2,0.7,0.7,0.9c0.5,0.2,1.3,0.5,2.4,0.8c1.3,0.4,2.4,0.7,3.2,1.1c0.9,0.4,1.6,0.9,2.2,1.6
			c0.6,0.7,1,1.6,1,2.8c0,1.8-0.7,3.2-2.1,4.3c-1.4,1-3.4,1.5-5.8,1.5C251.6,48.6,250.1,48.4,248.7,48.1z"/>
		<path class="st2" d="M271.7,41.2l0,0.5c0,1.6,0.9,2.3,2.6,2.3c0.4,0,1,0,1.7-0.1l-0.7,4.5c-0.7,0.1-1.5,0.2-2.2,0.2
			c-5.2,0-7.8-2.1-7.8-6.4c0-0.5,0-0.8,0-1l0.5-5.8h-3.3l0.4-4.7h3.3l0.4-5.1h6.4l-0.4,5.1h4.2l-0.4,4.7h-4.2L271.7,41.2z"/>
		<path class="st2" d="M292.5,47.9c-1.8-0.5-3.4-1.2-4.8-2l2.4-4.7c2.6,1.6,5.3,2.4,8.3,2.4c1.4,0,2.4-0.2,3.1-0.5
			c0.7-0.4,1.1-0.9,1.1-1.6c0-0.7-0.4-1.3-1.2-1.7s-2-0.9-3.7-1.3c-1.8-0.5-3.2-1-4.4-1.5c-1.1-0.5-2.1-1.3-2.9-2.2
			s-1.2-2.3-1.2-3.9c0-1.6,0.4-3,1.3-4.2c0.9-1.2,2.2-2.2,3.8-2.8c1.7-0.7,3.6-1,5.8-1c1.8,0,3.6,0.3,5.3,0.8c1.7,0.5,3,1.2,4,2
			l-2.4,4.7c-1-0.7-2.2-1.3-3.4-1.7c-1.3-0.4-2.5-0.6-3.7-0.6c-1.3,0-2.3,0.2-3.1,0.6s-1.1,1-1.1,1.7c0,0.8,0.4,1.4,1.2,1.8
			c0.8,0.4,2,0.9,3.7,1.4c1.8,0.5,3.2,1,4.3,1.5c1.1,0.5,2.1,1.2,2.9,2.2s1.2,2.2,1.2,3.8c0,2.5-1,4.5-2.9,5.9
			c-1.9,1.4-4.6,2.1-8.2,2.1C296.2,48.7,294.3,48.4,292.5,47.9z"/>
		<path class="st2" d="M326.8,32.4c1.5,1.5,2.2,3.6,2.2,6.4c0,0.6,0,1.3-0.1,1.9H318c0.3,2.2,1.6,3.2,3.9,3.2c1.7,0,3.4-0.6,5-1.7
			l1.3,4.2c-0.8,0.7-1.8,1.2-3,1.6c-1.2,0.4-2.4,0.6-3.8,0.6c-1.9,0-3.6-0.4-5-1.1s-2.6-1.7-3.4-3c-0.8-1.3-1.2-2.8-1.2-4.6
			c0-1.9,0.4-3.5,1.2-5c0.8-1.5,1.9-2.6,3.3-3.5c1.4-0.8,2.9-1.2,4.6-1.2C323.4,30.2,325.3,30.9,326.8,32.4z M319.1,35.2
			c-0.5,0.5-0.9,1.3-1.1,2.4h5.7c-0.1-2.1-0.9-3.2-2.6-3.2C320.3,34.5,319.6,34.8,319.1,35.2z"/>
		<path class="st2" d="M346.4,31.9c1.3,1.1,1.9,2.9,1.9,5.3c0,0.3,0,0.7-0.1,1.3l-0.8,9.9h-6l0.2-2.2c-0.4,0.8-1,1.4-1.8,1.9
			c-0.8,0.4-1.7,0.7-2.7,0.7c-1.2,0-2.2-0.2-3.2-0.7s-1.7-1.1-2.2-1.9s-0.8-1.7-0.8-2.7c0-1.4,0.3-2.5,1-3.3
			c0.7-0.8,1.7-1.4,3.2-1.8c1.5-0.4,3.4-0.6,5.8-0.6h1.3l0-0.3c0-0.9-0.2-1.5-0.6-1.9c-0.4-0.4-1.2-0.6-2.2-0.6
			c-0.8,0-1.8,0.2-2.8,0.5c-1,0.3-2,0.7-2.9,1.2l-1.3-4.2c1-0.6,2.2-1.2,3.8-1.6c1.5-0.4,3-0.6,4.5-0.6
			C343.3,30.2,345.2,30.8,346.4,31.9z M341,43.4c0.6-0.6,0.9-1.4,1-2.4l0-0.4h-1c-1.4,0-2.4,0.2-3.1,0.5c-0.6,0.3-0.9,0.8-0.9,1.5
			c0,0.5,0.2,0.9,0.5,1.2c0.3,0.3,0.8,0.5,1.4,0.5C339.8,44.3,340.5,44,341,43.4z"/>
		<path class="st2" d="M359.6,41.2l0,0.5c0,1.6,0.9,2.3,2.6,2.3c0.4,0,1,0,1.7-0.1l-0.7,4.5c-0.7,0.1-1.5,0.2-2.2,0.2
			c-5.2,0-7.8-2.1-7.8-6.4c0-0.5,0-0.8,0-1l0.5-5.8h-3.3l0.4-4.7h3.3l0.4-5.1h6.4l-0.4,5.1h4.2l-0.4,4.7h-4.2L359.6,41.2z"/>
		<path class="st2" d="M373.5,41.2l0,0.5c0,1.6,0.9,2.3,2.6,2.3c0.4,0,1,0,1.7-0.1l-0.7,4.5c-0.7,0.1-1.5,0.2-2.2,0.2
			c-5.2,0-7.8-2.1-7.8-6.4c0-0.5,0-0.8,0-1l0.5-5.8h-3.3l0.4-4.7h3.3l0.4-5.1h6.4l-0.4,5.1h4.2l-0.4,4.7h-4.2L373.5,41.2z"/>
		<path class="st2" d="M379.5,48.3l2-25.4h6.4l-2,25.4H379.5z"/>
		<path class="st2" d="M404.5,32.4c1.5,1.5,2.2,3.6,2.2,6.4c0,0.6,0,1.3-0.1,1.9h-10.9c0.3,2.2,1.6,3.2,3.9,3.2c1.7,0,3.4-0.6,5-1.7
			l1.3,4.2c-0.8,0.7-1.8,1.2-3,1.6c-1.2,0.4-2.4,0.6-3.8,0.6c-1.9,0-3.6-0.4-5-1.1s-2.6-1.7-3.4-3c-0.8-1.3-1.2-2.8-1.2-4.6
			c0-1.9,0.4-3.5,1.2-5c0.8-1.5,1.9-2.6,3.3-3.5c1.4-0.8,2.9-1.2,4.6-1.2C401.1,30.2,403,30.9,404.5,32.4z M396.8,35.2
			c-0.5,0.5-0.9,1.3-1.1,2.4h5.7c-0.1-2.1-0.9-3.2-2.6-3.2C398,34.5,397.3,34.8,396.8,35.2z"/>
		<path class="st2" d="M419.6,48.3l2-25.4h6.6l-1.6,20h10.8l-0.4,5.4H419.6z"/>
		<path class="st2" d="M439.8,48.3l1.4-17.7h6.4l-1.4,17.7H439.8z M441.7,21.8h6.7l-0.5,5.8h-6.7L441.7,21.8z"/>
		<path class="st2" d="M467.4,31.9c1,1.1,1.5,2.8,1.5,4.9c0,0.5,0,0.9,0,1.2l-0.8,10.3h-6.4l0.8-10.1c0.1-1-0.1-1.8-0.5-2.3
			c-0.4-0.5-1-0.8-1.9-0.8c-0.9,0-1.7,0.3-2.2,0.9c-0.5,0.6-0.8,1.4-0.9,2.5l-0.8,9.9h-6.4l1.4-17.7h6.2l-0.1,1.9
			c0.6-0.7,1.4-1.3,2.4-1.7c1-0.4,2-0.6,3.2-0.6C464.9,30.2,466.4,30.7,467.4,31.9z"/>
		<path class="st2" d="M492.9,30.7l-7.6,8.6l6.4,9.1h-7.7l-5.4-7.6l-0.6,7.6h-6.4l1.9-25.4h6.4l-1.2,15l6.3-7.3H492.9z"/>
		<path class="st2" d="M522.9,28.1h-11.6l-0.4,4.8h10.9l-0.4,5.1h-10.9l-0.4,5.3h11.6l-0.4,5.1h-18l2-25.4h18.1L522.9,28.1z"/>
		<path class="st2" d="M544.5,30.6l-7.7,8.6l6.8,9.1h-7.4l-3.3-4.7l-4,4.7h-7.6l8.2-9.2l-6.4-8.5h7.4l3,4.2l3.5-4.2H544.5z"/>
		<path class="st2" d="M552.6,41.2l0,0.5c0,1.6,0.9,2.3,2.6,2.3c0.4,0,1,0,1.7-0.1l-0.7,4.5c-0.7,0.1-1.5,0.2-2.2,0.2
			c-5.2,0-7.8-2.1-7.8-6.4c0-0.5,0-0.8,0-1l0.5-5.8h-3.3l0.4-4.7h3.3l0.4-5.1h6.4l-0.4,5.1h4.2l-0.4,4.7h-4.2L552.6,41.2z"/>
		<path class="st2" d="M573.5,32.4c1.5,1.5,2.2,3.6,2.2,6.4c0,0.6,0,1.3-0.1,1.9h-10.9c0.3,2.2,1.6,3.2,3.9,3.2c1.7,0,3.4-0.6,5-1.7
			l1.3,4.2c-0.8,0.7-1.8,1.2-3,1.6c-1.2,0.4-2.4,0.6-3.8,0.6c-1.9,0-3.6-0.4-5-1.1s-2.6-1.7-3.4-3c-0.8-1.3-1.2-2.8-1.2-4.6
			c0-1.9,0.4-3.5,1.2-5c0.8-1.5,1.9-2.6,3.3-3.5c1.4-0.8,2.9-1.2,4.6-1.2C570.1,30.2,572.1,30.9,573.5,32.4z M565.8,35.2
			c-0.5,0.5-0.9,1.3-1.1,2.4h5.7c-0.1-2.1-0.9-3.2-2.6-3.2C567,34.5,566.4,34.8,565.8,35.2z"/>
		<path class="st2" d="M595.5,31.9c1,1.1,1.5,2.8,1.5,4.9c0,0.5,0,0.9,0,1.2l-0.8,10.3h-6.4l0.8-10.1c0.1-1-0.1-1.8-0.5-2.3
			c-0.4-0.5-1-0.8-1.9-0.8c-0.9,0-1.7,0.3-2.2,0.9c-0.5,0.6-0.8,1.4-0.9,2.5l-0.8,9.9H578l1.4-17.7h6.2l-0.1,1.9
			c0.6-0.7,1.4-1.3,2.4-1.7c1-0.4,2-0.6,3.2-0.6C593,30.2,594.5,30.7,595.5,31.9z"/>
		<path class="st2" d="M602.7,48.1c-1.4-0.3-2.7-0.9-4.1-1.6l2-4.4c1,0.6,2.1,1.1,3.3,1.5c1.2,0.4,2.4,0.6,3.5,0.6
			c0.7,0,1.3-0.1,1.6-0.3s0.5-0.4,0.5-0.7c0-0.4-0.2-0.7-0.7-0.9c-0.5-0.2-1.3-0.5-2.3-0.8c-1.3-0.3-2.3-0.7-3.2-1
			c-0.9-0.4-1.6-0.9-2.2-1.6c-0.6-0.7-1-1.6-1-2.8c0-1.2,0.3-2.2,1-3.1c0.7-0.9,1.6-1.6,2.8-2.1c1.2-0.5,2.6-0.7,4.2-0.7
			c1.4,0,2.7,0.2,4,0.6s2.5,0.9,3.4,1.6l-1.9,4.2c-0.9-0.6-1.8-1.1-2.8-1.4c-1-0.3-1.9-0.5-2.9-0.5c-0.8,0-1.3,0.1-1.7,0.3
			c-0.4,0.2-0.6,0.4-0.6,0.7c0,0.4,0.2,0.7,0.7,0.9c0.5,0.2,1.3,0.5,2.4,0.8c1.3,0.4,2.4,0.7,3.2,1.1c0.9,0.4,1.6,0.9,2.2,1.6
			c0.6,0.7,1,1.6,1,2.8c0,1.8-0.7,3.2-2.1,4.3c-1.4,1-3.4,1.5-5.8,1.5C605.6,48.6,604.1,48.4,602.7,48.1z"/>
		<path class="st2" d="M617.4,48.3l1.4-17.7h6.4l-1.4,17.7H617.4z M619.3,21.8h6.7l-0.5,5.8h-6.7L619.3,21.8z"/>
		<path class="st2" d="M631.9,47.5c-1.5-0.7-2.6-1.7-3.4-3.1s-1.2-2.9-1.2-4.6c0-2,0.4-3.7,1.2-5.2c0.8-1.5,2-2.6,3.4-3.3
			c1.5-0.8,3.2-1.2,5.2-1.2c2,0,3.7,0.4,5.1,1.1c1.5,0.7,2.6,1.7,3.4,3.1c0.8,1.3,1.2,2.9,1.2,4.6c0,2-0.4,3.8-1.2,5.2
			c-0.8,1.5-2,2.6-3.4,3.3c-1.5,0.8-3.2,1.2-5.2,1.2S633.4,48.3,631.9,47.5z M639.7,42.5c0.6-1,0.8-2.2,0.8-3.7
			c0-1.3-0.3-2.3-0.8-2.9s-1.4-1-2.5-1c-1.3,0-2.2,0.5-2.8,1.4c-0.6,0.9-0.8,2.2-0.8,3.6c0,1.3,0.3,2.3,0.8,3c0.5,0.6,1.4,1,2.5,1
			C638.2,43.9,639.1,43.4,639.7,42.5z"/>
		<path class="st2" d="M666.6,31.9c1,1.1,1.5,2.8,1.5,4.9c0,0.5,0,0.9,0,1.2l-0.8,10.3h-6.4l0.8-10.1c0.1-1-0.1-1.8-0.5-2.3
			c-0.4-0.5-1-0.8-1.9-0.8c-0.9,0-1.7,0.3-2.2,0.9c-0.5,0.6-0.8,1.4-0.9,2.5l-0.8,9.9h-6.4l1.4-17.7h6.2l-0.1,1.9
			c0.6-0.7,1.4-1.3,2.4-1.7c1-0.4,2-0.6,3.2-0.6C664.1,30.2,665.6,30.7,666.6,31.9z"/>
	</g>
	<g class="st1">
		<path class="st2" d="M209.9,73.4c0.7,1.1,1.1,2.3,1.1,3.7c0,2.3-0.9,4.1-2.6,5.3c-1.7,1.2-4,1.9-6.9,1.9h-12.7l2-25.4h11.9
			c2.8,0,4.9,0.6,6.4,1.8c1.5,1.2,2.2,2.7,2.2,4.6c0,1.4-0.4,2.6-1.1,3.5c-0.7,1-1.8,1.7-3.3,2.3C208.1,71.6,209.1,72.3,209.9,73.4z
			 M203.9,78.7c0.6-0.4,0.9-1.1,0.9-2.1c0-0.9-0.3-1.6-0.8-2c-0.6-0.4-1.5-0.7-2.7-0.7H196l-0.4,5.4h5.3
			C202.3,79.3,203.3,79.1,203.9,78.7z M204,68.4c0.6-0.4,0.9-1,0.9-2c0-0.8-0.3-1.4-0.8-1.8s-1.4-0.6-2.6-0.6h-4.6l-0.4,5h4.6
			C202.4,68.9,203.4,68.7,204,68.4z"/>
		<path class="st2" d="M228.5,67.9c1.3,1.1,1.9,2.9,1.9,5.3c0,0.3,0,0.7-0.1,1.3l-0.8,9.9h-6l0.2-2.2c-0.4,0.8-1,1.4-1.8,1.9
			c-0.8,0.4-1.7,0.7-2.7,0.7c-1.2,0-2.2-0.2-3.2-0.7s-1.7-1.1-2.2-1.9s-0.8-1.7-0.8-2.7c0-1.4,0.3-2.5,1-3.3
			c0.7-0.8,1.7-1.4,3.2-1.8c1.5-0.4,3.4-0.6,5.8-0.6h1.3l0-0.3c0-0.9-0.2-1.5-0.6-1.9c-0.4-0.4-1.2-0.6-2.2-0.6
			c-0.8,0-1.8,0.2-2.8,0.5c-1,0.3-2,0.7-2.9,1.2l-1.3-4.2c1-0.6,2.2-1.2,3.8-1.6c1.5-0.4,3-0.6,4.5-0.6
			C225.4,66.2,227.3,66.8,228.5,67.9z M223.1,79.4c0.6-0.6,0.9-1.4,1-2.4l0-0.4h-1c-1.4,0-2.4,0.2-3.1,0.5c-0.6,0.3-0.9,0.8-0.9,1.5
			c0,0.5,0.2,0.9,0.5,1.2c0.3,0.3,0.8,0.5,1.4,0.5C221.9,80.3,222.6,80,223.1,79.4z"/>
		<path class="st2" d="M233.2,84.3l2-25.4h6.4l-2,25.4H233.2z"/>
		<path class="st2" d="M243.3,84.3l2-25.4h6.4l-2,25.4H243.3z"/>
		<path class="st2" d="M268.6,67.9c1.3,1.1,1.9,2.9,1.9,5.3c0,0.3,0,0.7-0.1,1.3l-0.8,9.9h-6l0.2-2.2c-0.4,0.8-1,1.4-1.8,1.9
			c-0.8,0.4-1.7,0.7-2.7,0.7c-1.2,0-2.2-0.2-3.2-0.7s-1.7-1.1-2.2-1.9s-0.8-1.7-0.8-2.7c0-1.4,0.3-2.5,1-3.3
			c0.7-0.8,1.7-1.4,3.2-1.8c1.5-0.4,3.4-0.6,5.8-0.6h1.3l0-0.3c0-0.9-0.2-1.5-0.6-1.9c-0.4-0.4-1.2-0.6-2.2-0.6
			c-0.8,0-1.8,0.2-2.8,0.5c-1,0.3-2,0.7-2.9,1.2l-1.3-4.2c1-0.6,2.2-1.2,3.8-1.6c1.5-0.4,3-0.6,4.5-0.6
			C265.5,66.2,267.4,66.8,268.6,67.9z M263.2,79.4c0.6-0.6,0.9-1.4,1-2.4l0-0.4h-1c-1.4,0-2.4,0.2-3.1,0.5c-0.6,0.3-0.9,0.8-0.9,1.5
			c0,0.5,0.2,0.9,0.5,1.2c0.3,0.3,0.8,0.5,1.4,0.5C262,80.3,262.7,80,263.2,79.4z"/>
		<path class="st2" d="M288,66.1l-0.1,5.3l-3.9,0.4c-1.3,0.1-2.3,0.5-2.8,1c-0.5,0.5-0.8,1.4-0.9,2.6l-0.7,8.9h-6.4l1.4-17.7h6.1
			l-0.2,2.3c1.3-1.6,3.4-2.5,6-2.7L288,66.1z"/>
		<path class="st2" d="M308.7,59l-2,25.4h-6.3l0.1-1.9c-0.6,0.7-1.3,1.3-2.2,1.7c-0.9,0.4-1.9,0.6-2.9,0.6c-1.5,0-2.8-0.3-3.9-1
			c-1.1-0.7-2-1.7-2.7-2.9c-0.6-1.3-1-2.8-1-4.5c0-1.9,0.4-3.6,1.1-5.1c0.7-1.5,1.7-2.7,3-3.5c1.3-0.8,2.8-1.3,4.4-1.3
			c2.2,0,3.9,0.8,5.1,2.3l0.8-9.5H308.7z M300.2,78.6c0.6-0.9,0.9-2,0.9-3.4c0-1.4-0.3-2.5-0.9-3.2c-0.6-0.7-1.4-1.1-2.5-1.1
			c-1.1,0-2,0.4-2.6,1.3s-1,2-1,3.5c0,1.3,0.3,2.4,0.9,3.1c0.6,0.7,1.5,1.1,2.6,1.1C298.7,79.9,299.6,79.5,300.2,78.6z"/>
		<path class="st2" d="M321.2,84.3l2-25.4h6.6l-1.6,20h10.8l-0.4,5.4H321.2z"/>
		<path class="st2" d="M341.4,84.3l1.4-17.7h6.4l-1.4,17.7H341.4z M343.3,57.8h6.7l-0.5,5.8h-6.7L343.3,57.8z"/>
		<path class="st2" d="M369,67.9c1,1.1,1.5,2.8,1.5,4.9c0,0.5,0,0.9,0,1.2l-0.8,10.3h-6.4l0.8-10.1c0.1-1-0.1-1.8-0.5-2.3
			c-0.4-0.5-1-0.8-1.9-0.8c-0.9,0-1.7,0.3-2.2,0.9c-0.5,0.6-0.8,1.4-0.9,2.5l-0.8,9.9h-6.4l1.4-17.7h6.2l-0.1,1.9
			c0.6-0.7,1.4-1.3,2.4-1.7c1-0.4,2-0.6,3.2-0.6C366.6,66.2,368,66.7,369,67.9z"/>
		<path class="st2" d="M394.5,66.7l-7.6,8.6l6.4,9.1h-7.7l-5.4-7.6l-0.6,7.6h-6.4l1.9-25.4h6.4l-1.2,15l6.3-7.3H394.5z"/>
		<path class="st2" d="M424.6,64.1H413l-0.4,4.8h10.9L423,74h-10.9l-0.4,5.3h11.6l-0.4,5.1h-18l2-25.4H425L424.6,64.1z"/>
		<path class="st2" d="M446.1,66.6l-7.7,8.6l6.8,9.1h-7.4l-3.3-4.7l-4,4.7h-7.6l8.2-9.2l-6.4-8.5h7.4l3,4.2l3.5-4.2H446.1z"/>
		<path class="st2" d="M454.3,77.2l0,0.5c0,1.6,0.9,2.3,2.6,2.3c0.4,0,1,0,1.7-0.1l-0.7,4.5c-0.7,0.1-1.5,0.2-2.2,0.2
			c-5.2,0-7.8-2.1-7.8-6.4c0-0.5,0-0.8,0-1l0.5-5.8H445l0.4-4.7h3.3l0.4-5.1h6.4l-0.4,5.1h4.2l-0.4,4.7h-4.2L454.3,77.2z"/>
		<path class="st2" d="M475.2,68.4c1.5,1.5,2.2,3.6,2.2,6.4c0,0.6,0,1.3-0.1,1.9h-10.9c0.3,2.2,1.6,3.2,3.9,3.2c1.7,0,3.4-0.6,5-1.7
			l1.3,4.2c-0.8,0.7-1.8,1.2-3,1.6c-1.2,0.4-2.4,0.6-3.8,0.6c-1.9,0-3.6-0.4-5-1.1s-2.6-1.7-3.4-3c-0.8-1.3-1.2-2.8-1.2-4.6
			c0-1.9,0.4-3.5,1.2-5c0.8-1.5,1.9-2.6,3.3-3.5c1.4-0.8,2.9-1.2,4.6-1.2C471.7,66.2,473.7,66.9,475.2,68.4z M467.5,71.2
			c-0.5,0.5-0.9,1.3-1.1,2.4h5.7c-0.1-2.1-0.9-3.2-2.6-3.2C468.6,70.5,468,70.8,467.5,71.2z"/>
		<path class="st2" d="M497.1,67.9c1,1.1,1.5,2.8,1.5,4.9c0,0.5,0,0.9,0,1.2l-0.8,10.3h-6.4l0.8-10.1c0.1-1-0.1-1.8-0.5-2.3
			c-0.4-0.5-1-0.8-1.9-0.8c-0.9,0-1.7,0.3-2.2,0.9c-0.5,0.6-0.8,1.4-0.9,2.5l-0.8,9.9h-6.4l1.4-17.7h6.2l-0.1,1.9
			c0.6-0.7,1.4-1.3,2.4-1.7c1-0.4,2-0.6,3.2-0.6C494.6,66.2,496.1,66.7,497.1,67.9z"/>
		<path class="st2" d="M504.3,84.1c-1.4-0.3-2.7-0.9-4.1-1.6l2-4.4c1,0.6,2.1,1.1,3.3,1.5c1.2,0.4,2.4,0.6,3.5,0.6
			c0.7,0,1.3-0.1,1.6-0.3s0.5-0.4,0.5-0.7c0-0.4-0.2-0.7-0.7-0.9c-0.5-0.2-1.3-0.5-2.3-0.8c-1.3-0.3-2.3-0.7-3.2-1
			c-0.9-0.4-1.6-0.9-2.2-1.6c-0.6-0.7-1-1.6-1-2.8c0-1.2,0.3-2.2,1-3.1c0.7-0.9,1.6-1.6,2.8-2.1c1.2-0.5,2.6-0.7,4.2-0.7
			c1.4,0,2.7,0.2,4,0.6s2.5,0.9,3.4,1.6l-1.9,4.2c-0.9-0.6-1.8-1.1-2.8-1.4c-1-0.3-1.9-0.5-2.9-0.5c-0.8,0-1.3,0.1-1.7,0.3
			c-0.4,0.2-0.6,0.4-0.6,0.7c0,0.4,0.2,0.7,0.7,0.9c0.5,0.2,1.3,0.5,2.4,0.8c1.3,0.4,2.4,0.7,3.2,1.1c0.9,0.4,1.6,0.9,2.2,1.6
			c0.6,0.7,1,1.6,1,2.8c0,1.8-0.7,3.2-2.1,4.3c-1.4,1-3.4,1.5-5.8,1.5C507.2,84.6,505.7,84.4,504.3,84.1z"/>
		<path class="st2" d="M519,84.3l1.4-17.7h6.4l-1.4,17.7H519z M520.9,57.8h6.7l-0.5,5.8h-6.7L520.9,57.8z"/>
		<path class="st2" d="M533.5,83.5c-1.5-0.7-2.6-1.7-3.4-3.1s-1.2-2.9-1.2-4.6c0-2,0.4-3.7,1.2-5.2c0.8-1.5,2-2.6,3.4-3.3
			c1.5-0.8,3.2-1.2,5.2-1.2c2,0,3.7,0.4,5.1,1.1c1.5,0.7,2.6,1.7,3.4,3.1c0.8,1.3,1.2,2.9,1.2,4.6c0,2-0.4,3.8-1.2,5.2
			c-0.8,1.5-2,2.6-3.4,3.3c-1.5,0.8-3.2,1.2-5.2,1.2S535,84.3,533.5,83.5z M541.3,78.5c0.6-1,0.8-2.2,0.8-3.7c0-1.3-0.3-2.3-0.8-2.9
			s-1.4-1-2.5-1c-1.3,0-2.2,0.5-2.8,1.4c-0.6,0.9-0.8,2.2-0.8,3.6c0,1.3,0.3,2.3,0.8,3c0.5,0.6,1.4,1,2.5,1
			C539.8,79.9,540.8,79.4,541.3,78.5z"/>
		<path class="st2" d="M568.2,67.9c1,1.1,1.5,2.8,1.5,4.9c0,0.5,0,0.9,0,1.2l-0.8,10.3h-6.4l0.8-10.1c0.1-1-0.1-1.8-0.5-2.3
			c-0.4-0.5-1-0.8-1.9-0.8c-0.9,0-1.7,0.3-2.2,0.9c-0.5,0.6-0.8,1.4-0.9,2.5l-0.8,9.9h-6.4l1.4-17.7h6.2l-0.1,1.9
			c0.6-0.7,1.4-1.3,2.4-1.7c1-0.4,2-0.6,3.2-0.6C565.7,66.2,567.2,66.7,568.2,67.9z"/>
	</g>
</g>
<g id="Service_Lines">
	<g id="_x31__x2F_3_Lines">
		<g>
			<path class="st3" d="M163.1,53c0,14.7-11.9,26.7-26.7,26.7c-13.7,0-24.9-10.3-26.5-23.5h-6c1.6,16.5,15.5,29.4,32.4,29.4
				c18,0,32.6-14.6,32.6-32.6H163.1z"/>
			<path class="st4" d="M136.4,20.4c-16.9,0-30.8,13-32.4,29.5h6c1.5-13.2,12.8-23.5,26.5-23.5c14.7,0,26.7,11.9,26.7,26.7h5.9
				C169,35,154.4,20.4,136.4,20.4z"/>
		</g>
		<g>
			<g>
				<defs>
					<rect id="SVGID_1_" y="0" width="109.8" height="107"/>
				</defs>
				<clipPath id="SVGID_00000072965606312227576440000017009168997037447311_">
					<use xlink:href="#SVGID_1_"  style="overflow:visible;"/>
				</clipPath>
				<g style="clip-path:url(#SVGID_00000072965606312227576440000017009168997037447311_);">
					<path class="st4" d="M-83,189.4l-8.4-8.4L38.8,50.8c8.8-8.8,18.3-12.7,30.9-12.7h38.6v11.8H69.7c-9.4,0-15.9,2.7-22.5,9.3
						L-83,189.4z"/>
					<path class="st3" d="M-70.3,202.3l-8.4-8.4l125-125c11.1-11.1,15.1-12.7,31-12.7h31V68h-31c-13,0-14,0.7-22.6,9.3L-70.3,202.3z
						"/>
					
						<rect x="-141.1" y="67.5" transform="matrix(0.7071 -0.7071 0.7071 0.7071 -52.1913 20.7882)" class="st6" width="280.3" height="11.8"/>
					
						<rect x="-151.3" y="61.1" transform="matrix(0.7071 -0.7071 0.7071 0.7071 -53.2907 5.3393)" class="st7" width="262.2" height="11.8"/>
					<path class="st8" d="M-47.3,58.9h-50.5V47.1h50.5c8.2,0,16.3-3.4,22.2-9.3l67.7-67.7l8.4,8.4l-67.7,67.7
						C-24.8,54.3-36,58.9-47.3,58.9z"/>
				</g>
			</g>
		</g>
		<path class="st2" d="M140.3,62.9c0-1.1,0.9-2,2-2s2,0.9,2,2s-0.9,2-2,2S140.3,64,140.3,62.9 M128.8,59.3c-0.8,0-1.5-0.7-1.4-1.5
			l0.7-11.5c0.1-0.8,0.8-1.5,1.6-1.5h13.5c0.8,0,1.6,0.7,1.7,1.6l0.7,11.5c0,0.8-0.6,1.5-1.4,1.5L128.8,59.3L128.8,59.3z
			 M130.8,64.9c-1.1,0-2-0.9-2-2s0.9-2,2-2s2,0.9,2,2S131.9,64.9,130.8,64.9 M130,41.3c0-0.8,0.7-1.5,1.5-1.5h10.1
			c0.8,0,1.5,0.7,1.5,1.5v0.5c0,0.8-0.7,1.5-1.5,1.5h-10.1c-0.8,0-1.5-0.7-1.5-1.5V41.3z M136.5,33.5c0.7,0,3,0,4,0.1
			c-0.2,0.4-1,2.4-1.4,3.6H134c-0.5-1.2-1.3-3.2-1.4-3.6C133.5,33.5,135.7,33.5,136.5,33.5 M143.7,67.3c0.9-0.2,1.9-0.9,2.3-1.7
			l1.1-2.2c0.5-1,0.9-2.7,0.8-3.8L146.7,40c0-1.4-1.5-2.8-3.1-2.8h-3c0.5-1.2,1.3-3.3,1.4-3.6c1.3,0.1,1.5,0.3,1.6,0.3l0.1,0.2
			l-0.1-0.2c0,0.3,0.3,0.6,0.6,0.6s0.7-0.4,0.7-0.7c0-1-1.6-1.3-3-1.5c-1.1-0.1-2.9-0.3-5.5-0.3s-4.5,0.1-5.5,0.3
			c-1.4,0.2-3,0.5-3,1.5c0,0.3,0.4,0.7,0.7,0.7s0.6-0.2,0.6-0.6l-0.1,0.2l0.1-0.2c0,0,0.3-0.2,1.6-0.3c0.1,0.2,0.9,2.3,1.4,3.6h-2.8
			c-1.8,0-3.1,1.4-3.1,2.8l-1.2,19.6c-0.1,1.1,0.3,2.8,0.8,3.8l1.1,2.2c0.4,0.8,1.3,1.5,2.2,1.7l-4.3,6.5h3.6l4.2-6.4h7.4l4.2,6.4
			h3.6L143.7,67.3z"/>
	</g>
</g>
</svg>
